HIERARCHY
ROOT Hips
{
  OFFSET -187.679 86.5976 -156.378
  CHANNELS 6 Xposition Yposition Zposition Zrotation Xrotation Yrotation
  JOINT LeftUpLeg
  {
    OFFSET 8.64259 1.95398 -2.38835
    CHANNELS 3 Zrotation Xrotation Yrotation
    JOINT LeftLeg
    {
      OFFSET 43.7702 0 0
      CHANNELS 3 Zrotation Xrotation Yrotation
      JOINT LeftFoot
      {
        OFFSET 40.6238 0 0
        CHANNELS 3 Zrotation Xrotation Yrotation
        JOINT LeftToeBase
        {
          OFFSET 12.7242 0 0
          CHANNELS 3 Zrotation Xrotation Yrotation
          End Site
          {
            OFFSET 0 0 0
          }
        }
      }
    }
  }
  JOINT RightUpLeg
  {
    OFFSET -8.2249 1.95398 -2.59336
    CHANNELS 3 Zrotation Xrotation Yrotation
    JOINT RightLeg
    {
      OFFSET 43.5653 0 0
      CHANNELS 3 Zrotation Xrotation Yrotation
      JOINT RightFoot
      {
        OFFSET 40.6238 0 0
        CHANNELS 3 Zrotation Xrotation Yrotation
        JOINT RightToeBase
        {
          OFFSET 12.7242 0 0
          CHANNELS 3 Zrotation Xrotation Yrotation
          End Site
          {
            OFFSET 0 0 0
          }
        }
      }
    }
  }
  JOINT Spine
  {
    OFFSET 0.165834 0.87714 6.61349
    CHANNELS 3 Zrotation Xrotation Yrotation
    JOINT Spine1
    {
      OFFSET 7.38963 1.71661e-005 0
      CHANNELS 3 Zrotation Xrotation Yrotation
      JOINT Spine2
      {
        OFFSET 11.9445 1.14441e-005 0
        CHANNELS 3 Zrotation Xrotation Yrotation
        JOINT Spine3
        {
          OFFSET 14.7254 4.19617e-005 0
          CHANNELS 3 Zrotation Xrotation Yrotation
          JOINT Spine4
          {
            OFFSET 10.9679 0 0
            CHANNELS 3 Zrotation Xrotation Yrotation
            JOINT RightShoulder
            {
              OFFSET 2.46616 -1.6653 3.69651
              CHANNELS 3 Zrotation Xrotation Yrotation
              JOINT RightArm
              {
                OFFSET 13.0012 0 0
                CHANNELS 3 Zrotation Xrotation Yrotation
                JOINT RightForeArm
                {
                  OFFSET 28.7848 1.52588e-005 0
                  CHANNELS 3 Zrotation Xrotation Yrotation
                  JOINT RightHand
                  {
                    OFFSET 26.5688 1.52588e-005 0
                    CHANNELS 3 Zrotation Xrotation Yrotation
                    End Site
                    {
                      OFFSET 0 0 0
                    }
                  }
                }
              }
            }
            JOINT LeftShoulder
            {
              OFFSET 2.38034 -1.29275 -3.7523
              CHANNELS 3 Zrotation Xrotation Yrotation
              JOINT LeftArm
              {
                OFFSET 16.3182 6.10352e-005 0
                CHANNELS 3 Zrotation Xrotation Yrotation
                JOINT LeftForeArm
                {
                  OFFSET 27.0901 0 0
                  CHANNELS 3 Zrotation Xrotation Yrotation
                  JOINT LeftHand
                  {
                    OFFSET 24.5451 1.52588e-005 0
                    CHANNELS 3 Zrotation Xrotation Yrotation
                    End Site
                    {
                      OFFSET 0 0 0
                    }
                  }
                }
              }
            }
            JOINT Neck
            {
              OFFSET 5.0226 -0.0266342 0
              CHANNELS 3 Zrotation Xrotation Yrotation
              JOINT Head
              {
                OFFSET 6.69363 2.86102e-005 0
                CHANNELS 3 Zrotation Xrotation Yrotation
                End Site
                {
                  OFFSET 0 0 0
                }
              }
            }
          }
        }
      }
    }
  }
}
MOTION
Frames:	7
Frame Time:	0.0416667
-289.489 81.9758 -284.537 -105.164 30.9724 -81.2459 -174.103 11.3189 99.9743 -68.756 -61.6312 9.51703 160.103 -15.4781 -64.8328 -11.6035 -20.2313 2.46663 179.508 29.7135 87.4767 -80.0239 -1.64968 -6.04438 84.0736 -5.52623 -0.683349 26.9172 -0.720443 1.42779 -0.65501 8.09205 -89.9093 10.6919 -1.26262 0.29572 -0.978457 -1.24837 0.351005 -23.5185 -1.29313 -0.0974925 -3.5059 -1.2931 -0.097488 92.4223 -42.8374 -98.3802 34.69 -10.1418 24.0793 -49.5498 8.59638 -88.1994 -2.27152 -0.140099 2.95673 -86.1538 -38.5191 82.7387 -12.046 15.2999 -17.4756 40.0157 -28.5837 -112.811 -11.063 -0.025026 -4.99971 14.9737 3.2669 -2.48211 3.55697 3.78358 -0.685813 
-285.765 84.7614 -281.771 -106.194 30.5517 -79.8942 -171.628 0.708015 101.681 -69.2377 -18.4796 5.80143 150.297 8.19769 -41.3825 -32.4876 -13.0862 -16.0376 -179.885 28.8126 88.8904 -72.4824 -1.83666 -6.35448 76.4817 -3.71042 -1.4148 25.8244 -1.01158 1.75958 -1.50458 7.99734 -89.9168 10.8879 -2.95718 0.442906 -0.779798 -2.93483 0.572731 -23.342 -2.95345 -0.46714 -3.32938 -2.95347 -0.467142 94.5797 -40.7437 -95.1212 40.8021 -14.1982 33.7984 -47.1008 13.1728 -90.6617 -0.328766 -0.0224796 1.29565 -85.8324 -34.7169 82.532 -8.23497 7.86233 -20.2318 30.0783 -24.5989 -119.256 -6.15364 -0.158058 -1.97599 10.1845 7.22247 -1.16764 5.9322 7.20676 -0.972905 
-283.844 89.5457 -278.456 -109.728 32.3788 -76.3271 -169.138 -11.5034 99.455 -63.8113 19.2879 7.42778 122.509 29.8917 -7.05541 -31.8769 -9.6112 -18.8467 -179.909 22.1028 89.724 -59.0781 -5.99032 -7.29059 67.6019 -1.50365 -1.29437 23.3261 -1.54736 2.06333 -2.02492 8.24584 -90.135 10.3917 -4.09575 0.0868248 -1.27286 -4.08796 0.267305 -23.8569 -3.93225 -1.15007 -3.84424 -3.93224 -1.15007 96.3317 -36.8615 -92.6836 43.3611 -15.9802 40.512 -45.532 17.4578 -94.7652 4.26886 0.113413 -1.67003 -85.8348 -31.0402 81.7403 -5.71526 3.48299 -19.9961 27.6789 -22.9444 -121.09 -3.52384 -0.126141 -0.601401 7.584 10.9293 0.527978 6.16934 10.5627 0.0863978 
-280.625 94.6323 -274.967 -109.738 34.5532 -74.975 -170.097 -13.3778 95.7093 -61.0936 32.9244 9.36607 88.4293 22.0658 14.4338 -1.65307 -6.39408 -9.86128 179.15 16.8147 89.7187 -41.3169 -13.5963 -6.69135 58.6531 0.655519 -0.505822 16.7575 -2.5011 1.47697 -2.16551 8.23818 -90.3558 10.3963 -4.47694 -0.316201 -1.26693 -4.48651 -0.118466 -23.8576 -4.17457 -1.64942 -3.84493 -4.17459 -1.64942 96.7649 -35.7461 -92.0517 40.2661 -12.9515 44.2074 -42.3592 18.6473 -99.4083 3.51948 0.0110027 -3.97385 -85.8055 -27.552 80.9349 -3.41678 6.0592 -21.6574 30.2075 -24.3082 -118.6 -4.87843 -0.192735 0.624568 6.21184 12.4503 -0.00780758 4.90595 12.2638 1.42938 
-275.443 97.6551 -271.437 -103.791 36.2607 -77.2248 -171.768 -4.20267 94.4554 -59.5024 31.6114 9.58026 71.411 9.27231 11.2713 15.1955 -2.52834 -6.25865 -179.094 17.8156 90.5016 -31.277 -18.1498 -7.25003 60.0746 -0.510317 0.00531361 17.9342 -2.0392 0.833925 -2.10381 7.68218 -90.5656 11.503 -4.44993 -0.67218 -0.160403 -4.47517 -0.475321 -22.7469 -4.04189 -1.98052 -2.73423 -4.04187 -1.98053 96.1381 -36.3153 -93.1239 37.002 -8.23977 44.1117 -37.8817 17.2827 -102.229 2.52407 -0.0497958 -5.75485 -85.687 -25.0788 80.5376 -1.76348 11.9341 -22.4623 33.9175 -26.947 -115.853 -5.27961 -0.230587 1.47652 6.24584 12.3535 -5.03886 2.55519 13.2607 4.70781 
-269.861 97.9474 -265.947 -103.138 41.934 -78.7811 -173.173 0.251814 89.1641 -55.5373 22.7078 6.70645 65.2699 3.86374 4.59484 21.8859 -1.71343 -2.51166 -177.49 21.4701 88.8431 -37.703 -17.3481 -8.66302 64.6969 -2.34212 -0.804228 14.4695 -2.39045 0.255412 -1.4802 7.61439 -90.4083 11.6412 -3.13565 -0.487077 -0.0259642 -3.15405 -0.348464 -22.5867 -2.84419 -1.40767 -2.57402 -2.84416 -1.40767 94.8288 -39.1278 -94.9924 32.1427 -6.02558 38.6464 -37.1342 17.9393 -106.362 2.21962 -0.0393879 -5.36684 -86.4411 -27.5863 79.6754 0.132177 18.1781 -17.8973 35.2767 -29.4622 -115.184 -4.4507 -0.188803 1.62951 9.80395 11.9084 -8.05836 1.35337 13.586 5.81871 
-264.051 96.4404 -261.041 -103.158 44.5866 -78.4316 -173.519 6.17949 89.3084 -57.3251 20.5703 5.87657 68.3669 5.18924 4.23326 28.1233 -0.279478 0.120124 -177.789 24.4719 88.615 -49.6512 -4.27722 -6.77345 68.6459 -3.57352 -0.857027 17.4965 -2.5409 1.89831 -1.17123 7.72505 -90.4172 11.4191 -2.52511 -0.575974 -0.249424 -2.548 -0.464219 -22.7998 -2.23522 -1.30857 -2.7872 -2.23523 -1.30858 92.45 -43.5677 -98.1707 23.5782 -6.58756 29.7788 -39.1673 20.929 -111.633 2.34558 -0.0114848 -4.58762 -88.0886 -34.4326 78.3893 1.28766 22.0432 -7.67602 32.9527 -29.6307 -116.364 -3.91633 -0.179184 2.57012 14.5354 11.4003 -9.08984 -0.127843 13.5317 4.94154 
